<svg width="44" height="32" viewBox="0 0 44 32" fill="none" xmlns="http://www.w3.org/2000/svg">
<rect x="29.0156" y="13.105" width="3.11593" height="3.11593" transform="rotate(180 29.0156 13.105)" fill="#77796E"/>
<rect x="32.1328" y="16.2212" width="3.11593" height="3.11593" transform="rotate(180 32.1328 16.2212)" fill="#AD9687"/>
<rect x="41.4805" y="3.75732" width="3.11593" height="3.11593" transform="rotate(180 41.4805 3.75732)" fill="#AD9687"/>
<rect x="25.9004" y="13.105" width="3.11593" height="3.11593" transform="rotate(180 25.9004 13.105)" fill="#AD9687"/>
<rect x="29.0156" y="16.2212" width="3.11593" height="3.11593" transform="rotate(180 29.0156 16.2212)" fill="#AD9687"/>
<rect x="29.0156" y="19.3369" width="3.11593" height="3.11593" transform="rotate(180 29.0156 19.3369)" fill="#A86D4E"/>
<rect x="40.4414" y="28.6851" width="3.11593" height="3.11593" transform="rotate(180 40.4414 28.6851)" fill="#A86D4E"/>
<rect x="43.5566" y="31.8008" width="3.11593" height="3.11593" transform="rotate(180 43.5566 31.8008)" fill="#A86D4E"/>
<rect x="22.7852" y="13.105" width="3.11593" height="3.11593" transform="rotate(180 22.7852 13.105)" fill="#77796E"/>
<rect x="25.9004" y="9.98926" width="3.11593" height="3.11593" transform="rotate(180 25.9004 9.98926)" fill="#77796E"/>
<rect x="4.08984" y="13.105" width="3.11593" height="3.11593" transform="rotate(180 4.08984 13.105)" fill="#77796E"/>
<rect x="25.9004" y="16.2212" width="3.11593" height="3.11593" transform="rotate(180 25.9004 16.2212)" fill="#AD9687"/>
<rect x="25.9004" y="19.3369" width="3.11593" height="3.11593" transform="rotate(180 25.9004 19.3369)" fill="#A86D4E"/>
<rect x="22.7852" y="16.2212" width="3.11593" height="3.11593" transform="rotate(180 22.7852 16.2212)" fill="#77796E"/>
<rect x="19.668" y="9.98926" width="3.11593" height="3.11593" transform="rotate(180 19.668 9.98926)" fill="#77796E"/>
</svg>
