<svg width="42" height="31" viewBox="0 0 42 31" fill="none" xmlns="http://www.w3.org/2000/svg">
<rect x="14.5078" y="18.5918" width="3.03966" height="3.03966" fill="#FFF6EB"/>
<rect x="11.4688" y="15.5518" width="3.03966" height="3.03966" fill="#DAEF74"/>
<rect x="2.34961" y="27.7104" width="3.03966" height="3.03966" fill="#DAEF74"/>
<rect x="17.5469" y="18.5918" width="3.03966" height="3.03966" fill="#DAEF74"/>
<rect x="14.5078" y="15.5518" width="3.03966" height="3.03966" fill="#DAEF74"/>
<rect x="14.5078" y="12.5122" width="3.03966" height="3.03966" fill="#FFBF74"/>
<rect x="3.36133" y="3.39258" width="3.03966" height="3.03966" fill="#FFBF74"/>
<rect x="0.322266" y="0.353516" width="3.03966" height="3.03966" fill="#FFBF74"/>
<rect x="20.5879" y="18.5918" width="3.03966" height="3.03966" fill="#FFF6EB"/>
<rect x="38.8262" y="18.5918" width="3.03966" height="3.03966" fill="#FFF6EB"/>
<rect x="17.5469" y="15.5518" width="3.03966" height="3.03966" fill="#DAEF74"/>
<rect x="17.5469" y="12.5122" width="3.03966" height="3.03966" fill="#FFBF74"/>
<rect x="17.5469" y="9.47217" width="3.03966" height="3.03966" fill="#FFBF74"/>
<rect x="20.5879" y="15.5518" width="3.03966" height="3.03966" fill="#FFF6EB"/>
<rect x="17.5469" y="21.6309" width="3.03966" height="3.03966" fill="#FFF6EB"/>
</svg>
