<svg width="43" height="31" viewBox="0 0 43 31" fill="none" xmlns="http://www.w3.org/2000/svg">
<rect x="15.0156" y="18.3223" width="3.03966" height="3.03966" fill="#FFF6EB"/>
<rect x="11.9785" y="15.2827" width="3.03966" height="3.03966" fill="#D2BDAB"/>
<rect x="2.85742" y="27.4414" width="3.03966" height="3.03966" fill="#FFF6EB"/>
<rect x="18.0547" y="18.3223" width="3.03966" height="3.03966" fill="#D2BDAB"/>
<rect x="15.0156" y="15.2827" width="3.03966" height="3.03966" fill="#D2BDAB"/>
<rect x="15.0156" y="12.2432" width="3.03966" height="3.03966" fill="#F2C8A4"/>
<rect x="3.86914" y="3.12402" width="3.03966" height="3.03966" fill="#F2C8A4"/>
<rect x="0.830078" y="0.0839844" width="3.03966" height="3.03966" fill="#FFF6EB"/>
<rect x="21.0957" y="18.3223" width="3.03966" height="3.03966" fill="#FFF6EB"/>
<rect x="39.332" y="18.3223" width="3.03966" height="3.03966" fill="#FFF6EB"/>
<rect x="18.0547" y="15.2827" width="3.03966" height="3.03966" fill="#D2BDAB"/>
<rect x="18.0547" y="12.2432" width="3.03966" height="3.03966" fill="#F2C8A4"/>
<rect x="18.0547" y="9.20312" width="3.03966" height="3.03966" fill="#F2C8A4"/>
<rect x="21.0957" y="15.2827" width="3.03966" height="3.03966" fill="#FFF6EB"/>
<rect x="18.0547" y="21.3618" width="3.03966" height="3.03966" fill="#FFF6EB"/>
</svg>
