<svg width="43" height="32" viewBox="0 0 43 32" fill="none" xmlns="http://www.w3.org/2000/svg">
<rect x="14.9863" y="18.8901" width="3.03966" height="3.03966" fill="#F2FFB5"/>
<rect x="2.82422" y="28.0098" width="3.03966" height="3.03966" fill="#CDEA40"/>
<rect x="18.0254" y="18.8901" width="3.03966" height="3.03966" fill="#CDEA40"/>
<rect x="14.9863" y="15.8511" width="3.03966" height="3.03966" fill="#CDEA40"/>
<rect x="11.9453" y="15.8511" width="3.03966" height="3.03966" fill="#CDEA40"/>
<rect x="14.9863" y="12.811" width="3.03966" height="3.03966" fill="#FF8617"/>
<rect x="3.83789" y="3.69238" width="3.03966" height="3.03966" fill="#FF8617"/>
<rect x="0.798828" y="0.65332" width="3.03966" height="3.03966" fill="#FF8617"/>
<rect x="21.0645" y="18.8901" width="3.03966" height="3.03966" fill="#F2FFB5"/>
<rect x="21.0645" y="21.9307" width="3.03966" height="3.03966" fill="#F2FFB5"/>
<rect x="39.3008" y="18.8901" width="3.03966" height="3.03966" fill="#FAFAE0"/>
<rect x="18.0254" y="15.8511" width="3.03966" height="3.03966" fill="#CDEA40"/>
<rect x="18.0254" y="12.811" width="3.03966" height="3.03966" fill="#FF8617"/>
<rect x="18.0254" y="9.77197" width="3.03966" height="3.03966" fill="#FF8617"/>
<rect x="21.0645" y="15.8511" width="3.03966" height="3.03966" fill="#F2FFB5"/>
<rect x="21.0645" y="12.811" width="3.03966" height="3.03966" fill="#FF8617"/>
<rect x="21.0645" y="9.77197" width="3.03966" height="3.03966" fill="#FF8617"/>
<rect x="24.1055" y="12.811" width="3.03966" height="3.03966" fill="#FAFAE0"/>
<rect x="24.1055" y="15.8511" width="3.03966" height="3.03966" fill="#FAFAE0"/>
<rect x="24.1055" y="18.8901" width="3.03966" height="3.03966" fill="#FAFAE0"/>
<rect x="27.1426" y="15.8511" width="3.03966" height="3.03966" fill="#FAFAE0"/>
<rect x="36.2617" y="15.8511" width="3.03966" height="3.03966" fill="#FAFAE0"/>
<rect x="18.0254" y="21.9307" width="3.03966" height="3.03966" fill="#F2FFB5"/>
</svg>
