<svg width="43" height="31" viewBox="0 0 43 31" fill="none" xmlns="http://www.w3.org/2000/svg">
<rect x="28.3359" y="12.397" width="3.03966" height="3.03966" transform="rotate(180 28.3359 12.397)" fill="#E6DCDA"/>
<rect x="31.375" y="15.436" width="3.03966" height="3.03966" transform="rotate(180 31.375 15.436)" fill="#7A5868"/>
<rect x="40.4961" y="3.27734" width="3.03966" height="3.03966" transform="rotate(180 40.4961 3.27734)" fill="#E6DCDA"/>
<rect x="25.2949" y="12.397" width="3.03966" height="3.03966" transform="rotate(180 25.2949 12.397)" fill="#7A5868"/>
<rect x="28.3359" y="15.436" width="3.03966" height="3.03966" transform="rotate(180 28.3359 15.436)" fill="#7A5868"/>
<rect x="28.3359" y="18.4766" width="3.03966" height="3.03966" transform="rotate(180 28.3359 18.4766)" fill="#7F89B2"/>
<rect x="39.4844" y="27.5952" width="3.03966" height="3.03966" transform="rotate(180 39.4844 27.5952)" fill="#7F89B2"/>
<rect x="42.5234" y="30.6353" width="3.03966" height="3.03966" transform="rotate(180 42.5234 30.6353)" fill="#E6DCDA"/>
<rect x="22.2559" y="12.397" width="3.03966" height="3.03966" transform="rotate(180 22.2559 12.397)" fill="#E6DCDA"/>
<rect x="4.01953" y="12.397" width="3.03966" height="3.03966" transform="rotate(180 4.01953 12.397)" fill="#E6DCDA"/>
<rect x="25.2949" y="15.436" width="3.03966" height="3.03966" transform="rotate(180 25.2949 15.436)" fill="#7A5868"/>
<rect x="25.2949" y="18.4766" width="3.03966" height="3.03966" transform="rotate(180 25.2949 18.4766)" fill="#7F89B2"/>
<rect x="25.2949" y="21.5156" width="3.03966" height="3.03966" transform="rotate(180 25.2949 21.5156)" fill="#7F89B2"/>
<rect x="22.2559" y="15.436" width="3.03966" height="3.03966" transform="rotate(180 22.2559 15.436)" fill="#E6DCDA"/>
<rect x="25.2949" y="9.35693" width="3.03966" height="3.03966" transform="rotate(180 25.2949 9.35693)" fill="#E6DCDA"/>
</svg>
