<svg width="28" height="17" viewBox="0 0 28 17" fill="none" xmlns="http://www.w3.org/2000/svg">
<rect width="3.03966" height="3.03966" transform="matrix(-1 0 0 1 21.6426 10.0981)" fill="#CDF05F"/>
<rect width="3.03966" height="3.03966" transform="matrix(-1 0 0 1 18.6035 10.0981)" fill="#CDF05F"/>
<rect width="3.03966" height="3.03966" transform="matrix(-1 0 0 1 18.6035 13.1382)" fill="#CDF05F"/>
<rect width="3.03966" height="3.03966" transform="matrix(-1 0 0 1 18.6035 7.05908)" fill="#CDF05F"/>
<rect width="3.03966" height="3.03966" transform="matrix(-1 0 0 1 15.5664 7.05908)" fill="#BAF6D4"/>
<rect width="3.03966" height="3.03966" transform="matrix(-1 0 0 1 15.5664 10.0981)" fill="#BAF6D4"/>
<rect width="3.03966" height="3.03966" transform="matrix(-1 0 0 1 18.6035 4.01855)" fill="#BAF6D4"/>
<rect width="3.03966" height="3.03966" transform="matrix(-1 0 0 1 15.5664 4.01855)" fill="#BAF6D4"/>
<rect width="3.03966" height="3.03966" transform="matrix(-1 0 0 1 15.5664 0.979492)" fill="#68EBA0"/>
<rect width="3.03966" height="3.03966" transform="matrix(-1 0 0 1 18.6035 0.979492)" fill="#68EBA0"/>
<rect width="3.03966" height="3.03966" transform="matrix(-1 0 0 1 12.5254 4.01855)" fill="#68EBA0"/>
<rect width="3.03966" height="3.03966" transform="matrix(-1 0 0 1 6.44336 4.01855)" fill="#68EBCC"/>
<rect width="3.03966" height="3.03966" transform="matrix(-1 0 0 1 3.4043 0.979492)" fill="#68EBCC"/>
<rect width="3.03966" height="3.03966" transform="matrix(-1 0 0 1 12.5254 7.05908)" fill="#68EBA0"/>
<rect width="3.03966" height="3.03966" transform="matrix(-1 0 0 1 21.6426 7.05908)" fill="#CDF05F"/>
<rect width="3.03966" height="3.03966" transform="matrix(-1 0 0 1 27.7227 7.05908)" fill="#BFF8EA"/>
<rect width="3.03966" height="3.03966" transform="matrix(-1 0 0 1 21.6426 4.01855)" fill="#BFF8EA"/>
</svg>
