<svg width="28" height="16" viewBox="0 0 28 16" fill="none" xmlns="http://www.w3.org/2000/svg">
<rect x="6.39453" y="9.69287" width="3.03966" height="3.03966" fill="#CDF05F"/>
<rect x="9.43359" y="9.69287" width="3.03966" height="3.03966" fill="#CDF05F"/>
<rect x="9.43359" y="12.7329" width="3.03966" height="3.03966" fill="#CDF05F"/>
<rect x="9.43359" y="6.65381" width="3.03966" height="3.03966" fill="#CDF05F"/>
<rect x="12.4707" y="6.65381" width="3.03966" height="3.03966" fill="#BAF6D4"/>
<rect x="12.4707" y="9.69287" width="3.03966" height="3.03966" fill="#BAF6D4"/>
<rect x="9.43359" y="3.61328" width="3.03966" height="3.03966" fill="#BAF6D4"/>
<rect x="12.4707" y="3.61328" width="3.03966" height="3.03966" fill="#BAF6D4"/>
<rect x="12.4707" y="0.574219" width="3.03966" height="3.03966" fill="#68EBA0"/>
<rect x="9.43359" y="0.574219" width="3.03966" height="3.03966" fill="#68EBA0"/>
<rect x="15.5117" y="3.61328" width="3.03966" height="3.03966" fill="#68EBA0"/>
<rect x="21.5938" y="3.61328" width="3.03966" height="3.03966" fill="#68EBCC"/>
<rect x="24.6328" y="0.574219" width="3.03966" height="3.03966" fill="#68EBCC"/>
<rect x="15.5117" y="6.65381" width="3.03966" height="3.03966" fill="#68EBA0"/>
<rect x="6.39453" y="6.65381" width="3.03966" height="3.03966" fill="#CDF05F"/>
<rect x="0.314453" y="6.65381" width="3.03966" height="3.03966" fill="#BFF8EA"/>
<rect x="6.39453" y="3.61328" width="3.03966" height="3.03966" fill="#BFF8EA"/>
</svg>
