<svg width="44" height="32" viewBox="0 0 44 32" fill="none" xmlns="http://www.w3.org/2000/svg">
<rect x="15.4219" y="19.2881" width="3.11593" height="3.11593" fill="#FFE2BF"/>
<rect x="12.3066" y="16.1719" width="3.11593" height="3.11593" fill="#ABB354"/>
<rect x="2.95898" y="28.6357" width="3.11593" height="3.11593" fill="#ABB354"/>
<rect x="18.5391" y="19.2881" width="3.11593" height="3.11593" fill="#ABB354"/>
<rect x="15.4219" y="16.1719" width="3.11593" height="3.11593" fill="#ABB354"/>
<rect x="15.4219" y="13.0562" width="3.11593" height="3.11593" fill="#A86D4E"/>
<rect x="3.99805" y="3.7085" width="3.11593" height="3.11593" fill="#A86D4E"/>
<rect x="0.880859" y="0.592285" width="3.11593" height="3.11593" fill="#A86D4E"/>
<rect x="21.6543" y="19.2881" width="3.11593" height="3.11593" fill="#FFE2BF"/>
<rect x="40.3496" y="19.2881" width="3.11593" height="3.11593" fill="#FFE2BF"/>
<rect x="18.5391" y="16.1719" width="3.11593" height="3.11593" fill="#ABB354"/>
<rect x="18.5391" y="13.0562" width="3.11593" height="3.11593" fill="#A86D4E"/>
<rect x="18.5391" y="9.93994" width="3.11593" height="3.11593" fill="#A86D4E"/>
<rect x="21.6543" y="16.1719" width="3.11593" height="3.11593" fill="#FFE2BF"/>
<rect x="18.5391" y="22.4038" width="3.11593" height="3.11593" fill="#FFE2BF"/>
</svg>
