<svg width="37" height="27" viewBox="0 0 37 27" fill="none" xmlns="http://www.w3.org/2000/svg">
<rect width="3.03966" height="3.03966" transform="matrix(-1 0 0 1 18.0215 13.624)" fill="#FFF6EB"/>
<rect width="3.03966" height="3.03966" transform="matrix(-1 0 0 1 36.2578 0.452148)" fill="#FFF6EB"/>
<rect width="3.03966" height="3.03966" transform="matrix(-1 0 0 1 33.2188 3.4917)" fill="#FFF6EB"/>
<rect width="3.03966" height="3.03966" transform="matrix(-1 0 0 1 18.0215 10.5845)" fill="#FFF6EB"/>
<rect width="3.03966" height="3.03966" transform="matrix(-1 0 0 1 18.0215 7.54541)" fill="#FFF6EB"/>
<rect width="3.03966" height="3.03966" transform="matrix(-1 0 0 1 14.9805 10.5845)" fill="#D8C6A6"/>
<rect width="3.03966" height="3.03966" transform="matrix(-1 0 0 1 18.0215 19.7036)" fill="#D8C6A6"/>
<rect width="3.03966" height="3.03966" transform="matrix(-1 0 0 1 18.0215 16.6641)" fill="#D8C6A6"/>
<rect width="3.03966" height="3.03966" transform="matrix(-1 0 0 1 21.0605 16.6641)" fill="#D8C6A6"/>
<rect width="3.03966" height="3.03966" transform="matrix(-1 0 0 1 3.83398 23.7563)" fill="#D8C6A6"/>
<rect width="3.03966" height="3.03966" transform="matrix(-1 0 0 1 21.0605 13.624)" fill="#FFF6EB"/>
<rect width="3.03966" height="3.03966" transform="matrix(-1 0 0 1 14.9805 13.624)" fill="#D8C6A6"/>
</svg>
