<svg width="49" height="83" viewBox="0 0 49 83" fill="none" xmlns="http://www.w3.org/2000/svg"><path fill="#FEAE35" d="M21 66h-3v3h3zm-3 0h-3v3h3zm3-3h-3v3h3zm3 0h-3v3h3z"/><path fill="#FF6590" d="M3 58H0v3h3z"/><path fill="#FFD977" d="M27 63h-3v3h3z"/><path fill="#FC0B4F" d="M6 58H3v3h3z"/><path fill="#FEAE35" d="M46 9h-3v3h3zm0 3h-3v3h3z"/><path fill="#FFD977" d="M33 77h-3v3h3zm-3-17h-3v3h3zm-3 0h-3v3h3z"/><path fill="#FF6590" d="M6 55H3v3h3z"/><path fill="#FEAE35" d="M49 6h-3v3h3z"/><path fill="#FFFEBB" d="M46 6h-3v3h3z"/><path fill="#FEAE35" d="M43 6h-3v3h3zm3-3h-3v3h3zm0-3h-3v3h3z"/><path fill="#FFD977" d="M36 80h-3v3h3zM24 66h-3v3h3zm3 0h-3v3h3z"/><path fill="#FF4129" d="M21 69h-3v3h3zm-3 0h-3v3h3zm0 3h-3v3h3zm-3 0h-3v3h3z"/></svg>