<svg width="27" height="35" viewBox="0 0 27 35" fill="none" xmlns="http://www.w3.org/2000/svg"><path fill="#93F0EA" d="M18 20h3v3h-3z"/><path fill="#53C3BC" d="M21 20h3v3h-3z"/><path fill="#ADF0FF" d="M18 17h3v3h-3zm-3 0h3v3h-3zm-3 0h3v3h-3z"/><path fill="#34F5AB" d="M3 3h3v3H3z"/><path fill="#53C3BC" d="M9 32h3v3H9z"/><path fill="#D7F8FF" d="M9 14h3v3H9z"/><path fill="#ADF0FF" d="M12 14h3v3h-3z"/><path fill="#34F5AB" d="M0 0h3v3H0z"/><path fill="#53C3BC" d="M6 32h3v3H6z"/><path fill="#93F0EA" d="M15 20h3v3h-3zm-3 0h3v3h-3z"/><path fill="#53C3BC" d="M18 23h3v3h-3zm3 0h3v3h-3zm3 3h3v3h-3z"/></svg>