<svg width="33" height="24" viewBox="0 0 33 24" fill="none" xmlns="http://www.w3.org/2000/svg">
<rect width="4" height="4" transform="matrix(1 -8.74228e-08 -8.74228e-08 -1 4 8)" fill="white"/>
<rect width="4" height="4" transform="matrix(1 -8.74228e-08 -8.74228e-08 -1 0 4)" fill="white"/>
<rect width="4" height="4" transform="matrix(1 -8.74228e-08 -8.74228e-08 -1 4 12)" fill="#F7FF9C"/>
<rect width="4" height="4" transform="matrix(1 -8.74228e-08 -8.74228e-08 -1 25 24)" fill="#F7FF9C"/>
<rect width="4" height="4" transform="matrix(1 -8.74228e-08 -8.74228e-08 -1 25 20)" fill="#EDFA4D"/>
<rect width="4" height="4" transform="matrix(1 -8.74228e-08 -8.74228e-08 -1 29 4)" fill="#EDFA4D"/>
<rect width="4" height="4" transform="matrix(1 -8.74228e-08 -8.74228e-08 -1 29 24)" fill="#EDFA4D"/>
<rect width="4" height="4" transform="matrix(1 -8.74228e-08 -8.74228e-08 -1 8 8)" fill="#F7FF9C"/>
</svg>
