<svg width="32" height="28" viewBox="0 0 32 28" fill="none" xmlns="http://www.w3.org/2000/svg">
<rect width="4" height="4" transform="matrix(1 0 0 -1 4 8)" fill="#F1FFB7"/>
<rect width="4" height="4" transform="matrix(1 0 0 -1 0 4)" fill="#F1FFB7"/>
<rect width="4" height="4" transform="matrix(1 0 0 -1 14 24)" fill="#F1FFB7"/>
<rect width="4" height="4" transform="matrix(1 0 0 -1 28 10)" fill="#DEFC65"/>
<rect width="4" height="4" transform="matrix(1 0 0 -1 24 14)" fill="#DEFC65"/>
<rect width="4" height="4" transform="matrix(1 0 0 -1 14 20)" fill="#DEFC65"/>
<rect width="4" height="4" transform="matrix(1 0 0 -1 10 24)" fill="white"/>
<rect width="4" height="4" transform="matrix(1 0 0 -1 14 28)" fill="white"/>
</svg>
