<svg width="36" height="28" viewBox="0 0 36 28" fill="none" xmlns="http://www.w3.org/2000/svg">
<rect width="4" height="4" transform="matrix(-1 0 0 1 20 20)" fill="#B2EFFF"/>
<rect width="4" height="4" transform="matrix(-1 0 0 1 24 24)" fill="#B2EFFF"/>
<rect width="4" height="4" transform="matrix(-1 0 0 1 32 4)" fill="#B2EFFF"/>
<rect width="4" height="4" transform="matrix(-1 0 0 1 4 0)" fill="#B2EFFF"/>
<rect width="4" height="4" transform="matrix(-1 0 0 1 36 0)" fill="#EBFBFF"/>
<rect width="4" height="4" transform="matrix(-1 0 0 1 20 16)" fill="#64DFFF"/>
<rect width="4" height="4" transform="matrix(-1 0 0 1 8 8)" fill="#64DFFF"/>
<rect width="4" height="4" transform="matrix(-1 0 0 1 12 4)" fill="#64DFFF"/>
<rect width="4" height="4" transform="matrix(-1 0 0 1 8 4)" fill="#64DFFF"/>
<rect width="4" height="4" transform="matrix(-1 0 0 1 16 20)" fill="#64DFFF"/>
<rect width="4" height="4" transform="matrix(-1 0 0 1 16 16)" fill="#64DFFF"/>
</svg>
