<svg width="16" height="16" viewBox="0 0 16 16" xmlns="http://www.w3.org/2000/svg">
<path fill-rule="evenodd" clip-rule="evenodd" d="M16 8C16 8.28579 15.985 8.56808 15.9558 8.84613C15.9384 9.01124 15.797 9.13334 15.6309 9.13334L0.369058 9.13333C0.203044 9.13333 0.0615711 9.01124 0.044215 8.84613C0.014986 8.56808 0 8.28579 0 8C0 7.64261 0.0234356 7.29069 0.0688539 6.9457C0.0901049 6.78428 0.229857 6.66675 0.392669 6.66675L15.6073 6.66675C15.7701 6.66675 15.9099 6.78428 15.9311 6.9457C15.9766 7.29069 16 7.64261 16 8ZM1.53931 12.4666C1.42847 12.4666 1.32447 12.4118 1.26456 12.3185C0.88741 11.7315 0.584901 11.092 0.370437 10.4133C0.304804 10.2056 0.464214 10 0.682026 10L15.318 10C15.5358 10 15.6952 10.2056 15.6296 10.4133C15.4151 11.092 15.1126 11.7315 14.7354 12.3185C14.6755 12.4118 14.5715 12.4666 14.4607 12.4666L1.53931 12.4666ZM2.78265 13.3333C2.4945 13.3333 2.34808 13.6691 2.55929 13.8651C3.98682 15.1899 5.89881 16 8 16C10.1012 16 12.0132 15.1899 13.4407 13.8651C13.6519 13.6691 13.5055 13.3333 13.2173 13.3333L2.78265 13.3333ZM0.748057 5.80008C0.526637 5.80008 0.366763 5.58806 0.439281 5.37886C0.675638 4.69698 1.00164 4.05699 1.40318 3.47298C1.46394 3.3846 1.56503 3.33325 1.67228 3.33325L14.3277 3.33325C14.435 3.33325 14.5361 3.3846 14.5968 3.47298C14.9984 4.05699 15.3244 4.69698 15.5607 5.37886C15.6332 5.58806 15.4734 5.80008 15.2519 5.80008L0.748057 5.80008ZM8 0C6.00958 0 4.18894 0.7269 2.78906 1.92972C2.56642 2.12101 2.70973 2.46659 3.00326 2.46659L12.9967 2.46659C13.2903 2.46659 13.4336 2.12102 13.2109 1.92972C11.8111 0.726901 9.99042 0 8 0Z" stroke="none"/>
</svg>
