<svg width="16" height="16" viewBox="0 0 16 16" xmlns="http://www.w3.org/2000/svg">
<path d="M13.538 2.99727C12.5247 2.5324 11.4275 2.19498 10.2846 2.00003C10.2746 1.99972 10.2646 2.00157 10.2554 2.00546C10.2462 2.00934 10.2379 2.01517 10.2313 2.02253C10.0941 2.26996 9.93411 2.59238 9.82744 2.83981C8.61522 2.65986 7.38242 2.65986 6.1702 2.83981C6.06353 2.58488 5.90353 2.26996 5.75876 2.02253C5.75114 2.00753 5.72828 2.00003 5.70542 2.00003C4.56254 2.19498 3.47298 2.5324 2.452 2.99727C2.44438 2.99727 2.43676 3.00477 2.42914 3.01227C0.356706 6.06397 -0.214738 9.03319 0.0671745 11.9724C0.0671745 11.9874 0.0747937 12.0024 0.0900322 12.0099C1.4615 12.9997 2.77963 13.5995 4.08252 13.9969C4.10538 14.0044 4.12824 13.9969 4.13586 13.9819C4.44063 13.5695 4.71492 13.1346 4.95112 12.6772C4.96636 12.6472 4.95112 12.6173 4.92064 12.6098C4.48634 12.4448 4.0749 12.2499 3.67108 12.0249C3.64061 12.0099 3.64061 11.9649 3.66346 11.9424C3.74728 11.8824 3.83109 11.815 3.9149 11.755C3.93014 11.74 3.953 11.74 3.96823 11.7475C6.58926 12.9247 9.416 12.9247 12.0065 11.7475C12.0218 11.74 12.0446 11.74 12.0599 11.755C12.1437 11.8225 12.2275 11.8824 12.3113 11.9499C12.3418 11.9724 12.3418 12.0174 12.3037 12.0324C11.9075 12.2648 11.4884 12.4523 11.0541 12.6173C11.0237 12.6248 11.016 12.6622 11.0237 12.6847C11.2675 13.1421 11.5418 13.577 11.8389 13.9894C11.8618 13.9969 11.8846 14.0044 11.9075 13.9969C13.218 13.5995 14.5361 12.9997 15.9076 12.0099C15.9228 12.0024 15.9305 11.9874 15.9305 11.9724C16.2657 8.57581 15.3743 5.62908 13.5685 3.01227C13.5609 3.00477 13.5533 2.99727 13.538 2.99727ZM5.34732 10.1804C4.56254 10.1804 3.90728 9.46808 3.90728 8.59081C3.90728 7.71354 4.5473 7.00122 5.34732 7.00122C6.15496 7.00122 6.79498 7.72104 6.78736 8.59081C6.78736 9.46808 6.14734 10.1804 5.34732 10.1804ZM10.6579 10.1804C9.87316 10.1804 9.2179 9.46808 9.2179 8.59081C9.2179 7.71354 9.85792 7.00122 10.6579 7.00122C11.4656 7.00122 12.1056 7.72104 12.098 8.59081C12.098 9.46808 11.4656 10.1804 10.6579 10.1804Z" stroke="none"/>
</svg>
