<svg width="1282" height="396" viewBox="0 0 1282 396" fill="none" xmlns="http://www.w3.org/2000/svg"><path d="M1145.76 270.365c10.01-2.733 18.57-5.899 26.57-11.453 27.31-18.696 51.65-39.701 74.47-63.063 6.98-7.446 12.98-15.342 20.39-24.246 4.01 5.163 8.48 9.349 10.59 15.056 1.04 2.372-.23 7.707-2.54 10.67-9.7 12.347-19.86 25.672-31.03 37.105-13.99 13.93-28.97 26.931-43.94 39.931-7.97 6.516-16.93 12.101-25.41 17.671-15.57 9.651-32.97 7.33-45.45-6.22-4.48-4.667-8.03-10.326-13.06-16.9-4.68 4.002-9.81 8.982-15.47 12.535-11.29 8.068-23.07 15.67-34.87 22.792-12.27 7.618-40.53-3.012-51.65-19.494-11.11-16.001-9.22-31.944.88-46.711 10.59-14.782 18.73-30.928 32.25-44.363 17.73-16.94 36.48-32.469 59.75-41.889 2.38-1.04 5.23-2.096 7.62-2.655 17.12-6.332 33.01-5.887 45.63 11.99 9.7-12.347 21.42-21.873 28.21-35.088 1.35-2.931 2.71-5.382 4.56-7.848 3.7-4.452 7.5-6.02 12.47-1.369 1.5 1.876 3.49 3.736 5.47 5.597 12.88 11.131 13.72 22.172 3.58 35.978-17.04 23.655-34.57 46.845-51.13 70.484-4.15 5.429-7.3 12.269-10.47 18.148-.9 1.954-1.27 5.335-2.7 5.863-11.92 3.275-6.4 10.314-4.72 17.479zm-60.94-53.361c-13.07 12.457-24.17 26.294-30.83 43.355 33.03-20.326 73.26-55.805 99.21-86.488-22.22-2.645-53.43 29.171-68.38 43.133z" fill="#271815"/><path d="M962.104 169.505c-59.201 29.36-92.668 80.5-119.216 137.19-14.469-.972-23.358-7.902-29.518-19.733-2.623-6.652-3.26-11.444.398-17.338 8.696-13.758 16.911-27.501 26.088-41.275 11.92-18.195 23.84-36.389 36.241-54.6l5.535-7.399c8.774-11.354 10.216-11.401 22.564-1.697 4.232-3.025 7.969-6.516 12.698-9.076a719.703 719.703 0 0138.33-20.017c6.156-3.088 12.855-4.269 19.105-4.472 15.352-1.462 35.411 23.391 30.591 37.986-3.07 9.244-7.591 18.053-12.613 26.398-12.308 21.095-25.095 42.206-37.387 63.781-2.728 4.901-4.944 10.749-8.524 19.047 31.088-20.744 101.324-80.782 130.514-100.501 4.98 5.131 9.47 9.798 13.98 15.426-3.27 2.994-5.11 5.46-7.94 7.477-25.01 15.252-89.999 73.676-112.512 91.734-4.682 4.002-9.861 7.54-14.574 10.581-6.14 3.569-12.453 1.849-16.92-2.337-6.966-6.992-13.466-14.48-19.004-22-5.058-7.536-4.844-15.724-2.722-24.456 5.948-24.256 16.27-47.211 31.493-67.439 4.619-5.925 8.758-11.835 13.393-17.28z" fill="#271815"/><path d="M889.445 209.408c-13.692 8.146-18.311 14.072-30.607 20.728-26.964 14.354-84.922 52.335-113.407 64.331-18.515 7.822-46.519 19.803-66.679 21.422-24.455 2.721-34.54-11.388-51.945-28.628-1.49-1.396-3.01-3.752-4.515-5.628-17.499-20.125-13.302-39.03-2.312-56.232 17.392-27.517 41.284-47.545 70.668-61.496 10.435-4.671 22.313-9.389 33.308-11.672 10.979-2.764 22.501-3.62 33.124-2.522 13.989.988 26.676 6.35 34.806 19.561 2.561 4.729 6.997 7.953 10.007 11.705 8.052 10.807 6.024 22.423-5.854 27.141-7.118 3.12-12.746 7.634-19.863 10.753-31.834 12.587-64.243 22.305-99.338 23.448-4.808.156-9.599.793-14.391 1.431-35.531 46.876 33.896 35.953 52.473 30.054 31.447-9.686 100.244-54.758 130.124-68.244 8.559-3.166 18.885-11.202 26.933-15.314 4.28-1.584 7.66-1.212 11.135 2.043 4.003 4.683.841 11.042 6.333 17.119zM771.59 181.483c-14.067-3.392-24.534.317-34.969 4.988-13.786 5.262-17.663 4.425-28.903 13.935-4.233 3.026-33.382 24.187-37.599 27.694 50.322-6.451 128.878-32.591 101.471-46.617zm-312.22 21.716c-16.748 2.952-31.092 5.825-44.971 8.202-11.956 2.314-31.546-8.117-36.233-19.033-2.56-4.729-.282-8.654 3.502-10.702 6.14-3.569 11.83-6.16 18.002-8.767 25.647-10.461 52.397-16.625 80.202-19.937 11.026-1.321 18.112-5.402 24.561-14.275 25.282-36.436 52.023-72.439 83.744-103.31 5.596-5.475 11.177-11.432 17.767-15.978 6.59-4.546 9.49-4.159 14.501 1.934 15.048 18.76 15.048 18.76 1.221 37.499-6 7.895-11.999 15.79-17.052 23.174-7.196.715-13.446.919-19.199 1.587.031.962.063 1.923-.371 3.381 3.862.356 7.708.23 13.492.523-4.865 13.153-14.726 20.693-20.167 30.976-5.44 10.284-12.819 20.149-21.081 32.45 12.484-.888 21.278 3.157 31.792.89 9.568-1.756 20.254 1.265 25.902 12.15 2.095 5.226 7.044 9.396 9.139 14.622 2.048 3.783 2.686 8.575 3.788 12.87-7.536 5.058-12.933 1.865-18.331-1.328-6.496 7.43-14.778 4.331-22.967 4.117-16.841.067-33.683.134-50.044.185-6.25.204-10.018 2.733-12.249 8.099-21.933 35.846-44.332 72.189-65.769 108.5-9.145 14.735-16.817 30.385-25.45 46.066-2.279 3.925-3.068 9.244-4.819 14.595-2.263 4.405-4.029 9.275-5.811 13.664-17.804.099-24.941-12.181-31.566-23.516-2.064-4.264-.376-11.538 1.39-16.408 9.544-32.074 23.508-61.404 38.898-91.262 7.719-14.207 15.934-27.95 24.134-42.174 1.364-2.45 2.263-4.405 4.045-8.794z" fill="#271815"/><path d="M278.975 35.338c15.322-2.424 31.573-5.84 47.391-7.8 16.763-2.47 33.046-4.925 49.872-5.473 15.865-.517 32.273.874 48.216 2.761 13.043 1.5 18.038 7.113 20.865 20.015 1.149 5.738 2.298 11.475 3.913 16.716 6.117 25.308-29.274 17.317-37.955 31.555-4.483-4.666-8.998-10.294-13.016-15.457-27.34 2.815-54.68 5.63-82.004 8.926-11.026 1.322-21.54 3.589-32.55 5.391-15.802 2.44-32.101 4.414-47.903 6.854-2.388.559-6.218 1.165-7.133 2.638-4.494 9.772-12.186 10.022-21.336 9.839 2.931 1.348 5.879 3.177 10.299 5.921-6.882 10.33-13.284 20.645-21.081 32.449l19.711-.641c18.749-.611 37.916-3.16 56.712-2.328 12.531.554 17.866 1.824 20.755 16.649 2.811 12.421 3.292 12.406 1.185 21.618-1.97-1.379-4.389-1.782-5.398-3.193-4.483-4.666-9.771-4.494-15.54-4.306-32.66 2.026-64.217 8.347-96.302 13.242-2.884.093-7.164 1.677-9.009 4.143-13.237 22.088-26.459 44.656-40.595 68.698 16.764-2.471 31.108-5.344 45.515-6.295 29.743-2.893 59.472-6.267 89.278-7.238 30.768-1.002 61.63.881 91.964 1.337 2.884-.094 5.304.309 8.204.696 13.539 1.965 22.877 7.917 24.804 22.774.716 7.195 6.719 14.218 2.162 22.067-15.446-1.422-29.451-2.891-43.951-4.825-8.419 7.493-14.872 1.446-21.263-2.677-7.352-4.092-14.004-1.469-20.144 2.1-8.032 4.593-15.552 10.131-25.308 6.118-16.173 5.82-33.558 3.98-49.841 6.435-33.527 4.942-67.07 9.403-100.597 14.344-9.103 1.259-18.19 2.999-26.781 5.204-3.35.59-7.582 3.615-8.93 6.547-5.023 8.345-12.93 16.783-2.97 27.047.993.93 1.087 3.814.157 4.807-6.402 10.315-8.88 22.908-19.67 31.441-19.544-8.989-31.07-23.051-30.348-45.212l-14.904.485c-7.88-5.519-11.526-14.063-14.228-23.119-2.204-8.59-.532-16.345 7.02-20.922 11.799-7.122 23.614-13.763 35.941-19.458 6.156-3.088 10.87-6.129 14.031-12.488 11.346-21.064 23.188-41.662 35.03-62.261.899-1.954 1.798-3.908 3.131-7.321-18.671 3.015-36.01 2.617-51.05 13.694-.495-.465-1.457-.434-1.969-1.38-11.96-12.604-9.964-25.182 6.178-31.964 12.343-5.214 25.198-9.483 38.55-13.286 8.559-3.167 17.646-4.906 26.733-6.646 5.722-1.63 10.467-3.709 14.157-8.642 10.075-15.728 20.167-30.976 31.637-48.193l-32.21 1.048c-12.034-.089-23.635-1.637-31.687-12.443-2.017-2.822-4.033-5.644-5.104-8.978-4.781-13.8-2.006-17.26 12.834-19.668 31.108-5.344 62.2-11.17 93.308-16.513 6.234-.685 8.993-4.625 12.714-8.596 8.356-9.416 16.247-18.335 24.619-27.27 2.79-2.979 6.062-5.973 9.396-7.044 2.372-1.04 7.226.246 8.731 2.122 5.555 8 10.163 16.513 15.764 25.956z" fill="#271815"/></svg>