<svg width="31" height="29" viewBox="0 0 31 29" fill="none" xmlns="http://www.w3.org/2000/svg"><path fill="#34F5AB" d="M21.063 20h3v3h-3z"/><path fill="#BDFFE6" d="M24.063 20h3v3h-3z"/><path fill="#34F5AB" d="M21.063 17h3v3h-3zm-3 0h3v3h-3z"/><path fill="#34F5AB" d="M15.063 17h3v3h-3zm0-14h3v3h-3z"/><path fill="#BDFFE6" d="M18.063 14h3v3h-3zm0-14h3v3h-3z"/><path fill="#ABABFF" d="M18.063 20h3v3h-3z"/><path fill="#ABABFF" d="M15.063 20h3v3h-3zm-12-5h3v3h-3zm-3-3h3v3h-3zm21 11h3v3h-3zm3 0h3v3h-3z"/><path fill="#D0D0FF" d="M27.063 26h3v3h-3z"/></svg>