<svg width="27" height="35" viewBox="0 0 27 35" fill="none" xmlns="http://www.w3.org/2000/svg">
<rect x="18" y="20" width="3" height="3" fill="#93F0EA"/>
<rect x="21" y="20" width="3" height="3" fill="#53C3BC"/>
<rect x="18" y="17" width="3" height="3" fill="#ADF0FF"/>
<rect x="15" y="17" width="3" height="3" fill="#ADF0FF"/>
<rect x="12" y="17" width="3" height="3" fill="#ADF0FF"/>
<rect x="3" y="3" width="3" height="3" fill="#34F5AB"/>
<rect x="9" y="32" width="3" height="3" fill="#53C3BC"/>
<rect x="9" y="14" width="3" height="3" fill="#D7F8FF"/>
<rect x="12" y="14" width="3" height="3" fill="#ADF0FF"/>
<rect width="3" height="3" fill="#34F5AB"/>
<rect x="6" y="32" width="3" height="3" fill="#53C3BC"/>
<rect x="15" y="20" width="3" height="3" fill="#93F0EA"/>
<rect x="12" y="20" width="3" height="3" fill="#93F0EA"/>
<rect x="18" y="23" width="3" height="3" fill="#53C3BC"/>
<rect x="21" y="23" width="3" height="3" fill="#53C3BC"/>
<rect x="24" y="26" width="3" height="3" fill="#53C3BC"/>
</svg>
