<svg width="30" height="29" viewBox="0 0 30 29" fill="none" xmlns="http://www.w3.org/2000/svg">
<rect width="3" height="3" transform="matrix(-1 0 0 1 9 20)" fill="#34F5AB"/>
<rect width="3" height="3" transform="matrix(-1 0 0 1 6 20)" fill="#BDFFE6"/>
<rect width="3" height="3" transform="matrix(-1 0 0 1 9 17)" fill="#34F5AB"/>
<rect width="3" height="3" transform="matrix(-1 0 0 1 12 17)" fill="#34F5AB"/>
<rect width="3" height="3" transform="matrix(-1 0 0 1 15 17)" fill="#34F5AB"/>
<rect width="3" height="3" transform="matrix(-1 0 0 1 15 3)" fill="#34F5AB"/>
<rect width="3" height="3" transform="matrix(-1 0 0 1 12 14)" fill="#BDFFE6"/>
<rect width="3" height="3" transform="matrix(-1 0 0 1 12 0)" fill="#BDFFE6"/>
<rect width="3" height="3" transform="matrix(-1 0 0 1 12 20)" fill="#ABABFF"/>
<rect width="3" height="3" transform="matrix(-1 0 0 1 15 20)" fill="#ABABFF"/>
<rect width="3" height="3" transform="matrix(-1 0 0 1 27 15)" fill="#ABABFF"/>
<rect width="3" height="3" transform="matrix(-1 0 0 1 30 12)" fill="#ABABFF"/>
<rect width="3" height="3" transform="matrix(-1 0 0 1 9 23)" fill="#ABABFF"/>
<rect width="3" height="3" transform="matrix(-1 0 0 1 6 23)" fill="#ABABFF"/>
<rect width="3" height="3" transform="matrix(-1 0 0 1 3 26)" fill="#D0D0FF"/>
</svg>
