<svg width="49" height="83" viewBox="0 0 49 83" fill="none" xmlns="http://www.w3.org/2000/svg">
<rect width="3" height="3" transform="matrix(-1 0 0 1 21 66)" fill="#FEAE35"/>
<rect width="3" height="3" transform="matrix(-1 0 0 1 18 66)" fill="#FEAE35"/>
<rect width="3" height="3" transform="matrix(-1 0 0 1 21 63)" fill="#FEAE35"/>
<rect width="3" height="3" transform="matrix(-1 0 0 1 24 63)" fill="#FEAE35"/>
<rect width="3" height="3" transform="matrix(-1 0 0 1 3 58)" fill="#FF6590"/>
<rect width="3" height="3" transform="matrix(-1 0 0 1 27 63)" fill="#FFD977"/>
<rect width="3" height="3" transform="matrix(-1 0 0 1 6 58)" fill="#FC0B4F"/>
<rect width="3" height="3" transform="matrix(-1 0 0 1 46 9)" fill="#FEAE35"/>
<rect width="3" height="3" transform="matrix(-1 0 0 1 46 12)" fill="#FEAE35"/>
<rect width="3" height="3" transform="matrix(-1 0 0 1 33 77)" fill="#FFD977"/>
<rect width="3" height="3" transform="matrix(-1 0 0 1 30 60)" fill="#FFD977"/>
<rect width="3" height="3" transform="matrix(-1 0 0 1 27 60)" fill="#FFD977"/>
<rect width="3" height="3" transform="matrix(-1 0 0 1 6 55)" fill="#FF6590"/>
<rect width="3" height="3" transform="matrix(-1 0 0 1 49 6)" fill="#FEAE35"/>
<rect width="3" height="3" transform="matrix(-1 0 0 1 46 6)" fill="#FFFEBB"/>
<rect width="3" height="3" transform="matrix(-1 0 0 1 43 6)" fill="#FEAE35"/>
<rect width="3" height="3" transform="matrix(-1 0 0 1 46 3)" fill="#FEAE35"/>
<rect width="3" height="3" transform="matrix(-1 0 0 1 46 0)" fill="#FEAE35"/>
<rect width="3" height="3" transform="matrix(-1 0 0 1 36 80)" fill="#FFD977"/>
<rect width="3" height="3" transform="matrix(-1 0 0 1 24 66)" fill="#FFD977"/>
<rect width="3" height="3" transform="matrix(-1 0 0 1 27 66)" fill="#FFD977"/>
<rect width="3" height="3" transform="matrix(-1 0 0 1 21 69)" fill="#FF4129"/>
<rect width="3" height="3" transform="matrix(-1 0 0 1 18 69)" fill="#FF4129"/>
<rect width="3" height="3" transform="matrix(-1 0 0 1 18 72)" fill="#FF4129"/>
<rect width="3" height="3" transform="matrix(-1 0 0 1 15 72)" fill="#FF4129"/>
</svg>
