<svg width="43" height="31" viewBox="0 0 43 31" fill="none" xmlns="http://www.w3.org/2000/svg"><path fill="#E6DCDA" d="M28.336 12.397h-3.04v-3.04h3.04z"/><path fill="#7A5868" d="M31.375 15.436h-3.04v-3.04h3.04z"/><path fill="#E6DCDA" d="M40.496 3.278h-3.04V.238h3.04z"/><path fill="#7A5868" d="M25.295 12.397h-3.04v-3.04h3.04zm3.041 3.039h-3.04v-3.04h3.04z"/><path fill="#7F89B2" d="M28.336 18.476h-3.04v-3.04h3.04zm11.149 9.119h-3.04v-3.04h3.04z"/><path fill="#E6DCDA" d="M42.524 30.636h-3.04v-3.04h3.04zM22.256 12.397h-3.04v-3.04h3.04zm-18.236 0H.98v-3.04h3.04z"/><path fill="#7A5868" d="M25.295 15.436h-3.04v-3.04h3.04z"/><path fill="#7F89B2" d="M25.295 18.476h-3.04v-3.04h3.04z"/><path fill="#7F89B2" d="M25.295 21.515h-3.04v-3.04h3.04z"/><path fill="#E6DCDA" d="M22.256 15.436h-3.04v-3.04h3.04zm3.039-6.079h-3.04v-3.04h3.04z"/></svg>