<svg width="28" height="13" viewBox="0 0 28 13" fill="none" xmlns="http://www.w3.org/2000/svg"><path fill="#9BA740" d="M6.621 9.821h3.04v3.04h-3.04z"/><path fill="#9BA740" d="M9.66 9.821h3.04v3.04H9.66z"/><path fill="#CADD34" d="M9.66 6.782h3.04v3.04H9.66z"/><path fill="#FFF6EB" d="M12.697 6.782h3.04v3.04h-3.04zM9.66 3.741h3.04v3.04H9.66z"/><path fill="#FFF6EB" d="M12.697 3.741h3.04v3.04h-3.04z"/><path fill="#B6E8EF" d="M12.697.702h3.04v3.04h-3.04zm3.041 3.039h3.04v3.04h-3.04z"/><path fill="#D0F6FC" d="M24.859.702h3.04v3.04h-3.04z"/><path fill="#B6E8EF" d="M15.738 6.782h3.04v3.04h-3.04z"/><path fill="#CADD34" d="M6.621 6.782h3.04v3.04h-3.04zm-6.08 0h3.04v3.04H.541zm6.08-3.041h3.04v3.04h-3.04z"/></svg>