<svg width="37" height="27" viewBox="0 0 37 27" fill="none" xmlns="http://www.w3.org/2000/svg"><path fill="#FFF6EB" d="M18.021 13.624h-3.04v3.04h3.04zM36.258.452h-3.04v3.04h3.04zm-3.039 3.04h-3.04v3.04h3.04z"/><path fill="#FFF6EB" d="M18.021 10.585h-3.04v3.04h3.04zm0-3.04h-3.04v3.04h3.04z"/><path fill="#D8C6A6" d="M14.98 10.585h-3.04v3.04h3.04zm3.041 9.119h-3.04v3.04h3.04zm0-3.04h-3.04v3.04h3.04z"/><path fill="#D8C6A6" d="M21.06 16.664h-3.04v3.04h3.04zM3.834 23.756H.794v3.04h3.04z"/><path fill="#FFF6EB" d="M21.06 13.624h-3.04v3.04h3.04z"/><path fill="#D8C6A6" d="M14.98 13.624h-3.04v3.04h3.04z"/></svg>