<svg width="29" height="13" viewBox="0 0 29 13" fill="none" xmlns="http://www.w3.org/2000/svg"><path fill="#D8C6A6" d="M6.998 9.604h3.04v3.04h-3.04z"/><path fill="#D8C6A6" d="M10.037 9.604h3.04v3.04h-3.04z"/><path fill="#ECE0D1" d="M10.037 6.565h3.04v3.04h-3.04z"/><path fill="#FFF6EB" d="M13.074 6.565h3.04v3.04h-3.04zm-3.037-3.04h3.04v3.04h-3.04z"/><path fill="#FFF6EB" d="M13.074 3.525h3.04v3.04h-3.04z"/><path fill="#B6E8EF" d="M13.074.486h3.04v3.04h-3.04zm3.041 3.039h3.04v3.04h-3.04z"/><path fill="#D0F6FC" d="M22.197 3.525h3.04v3.04h-3.04z"/><path fill="#D0F6FC" d="M25.236.486h3.04v3.04h-3.04z"/><path fill="#B6E8EF" d="M16.115 6.565h3.04v3.04h-3.04z"/><path fill="#ECE0D1" d="M6.998 6.565h3.04v3.04h-3.04zm-6.08 0h3.04v3.04H.918zm6.08-3.04h3.04v3.04h-3.04z"/></svg>