<svg width="44" height="32" viewBox="0 0 44 32" fill="none" xmlns="http://www.w3.org/2000/svg"><path fill="#FFE2BF" d="M15.422 19.288h3.116v3.116h-3.116z"/><path fill="#ABB354" d="M12.307 16.172h3.116v3.116h-3.116zM2.959 28.636h3.116v3.116H2.959zm15.58-9.348h3.116v3.116h-3.116z"/><path fill="#ABB354" d="M15.422 16.172h3.116v3.116h-3.116z"/><path fill="#A86D4E" d="M15.422 13.056h3.116v3.116h-3.116zM3.998 3.708h3.116v3.116H3.998zM.881.592h3.116v3.116H.881z"/><path fill="#FFE2BF" d="M21.654 19.288h3.116v3.116h-3.116zm18.696 0h3.116v3.116H40.35z"/><path fill="#ABB354" d="M18.539 16.172h3.116v3.116h-3.116z"/><path fill="#A86D4E" d="M18.539 13.056h3.116v3.116h-3.116zm0-3.116h3.116v3.116h-3.116z"/><path fill="#FFE2BF" d="M21.654 16.172h3.116v3.116h-3.116zm-3.115 6.232h3.116v3.116h-3.116z"/></svg>