<svg width="42" height="31" viewBox="0 0 42 31" fill="none" xmlns="http://www.w3.org/2000/svg"><path fill="#FFF6EB" d="M14.508 18.592h3.04v3.04h-3.04z"/><path fill="#DAEF74" d="M11.469 15.552h3.04v3.04h-3.04zM2.35 27.71h3.04v3.04H2.35zm15.197-9.118h3.04v3.04h-3.04z"/><path fill="#DAEF74" d="M14.508 15.552h3.04v3.04h-3.04z"/><path fill="#FFBF74" d="M14.508 12.512h3.04v3.04h-3.04zM3.361 3.393h3.04v3.04h-3.04z"/><path fill="#FFBF74" d="M.322.354h3.04v3.04H.322z"/><path fill="#FFF6EB" d="M20.588 18.592h3.04v3.04h-3.04zm18.238 0h3.04v3.04h-3.04z"/><path fill="#DAEF74" d="M17.547 15.552h3.04v3.04h-3.04z"/><path fill="#FFBF74" d="M17.547 12.512h3.04v3.04h-3.04zm0-3.04h3.04v3.04h-3.04z"/><path fill="#FFF6EB" d="M20.588 15.552h3.04v3.04h-3.04zm-3.041 6.079h3.04v3.04h-3.04z"/></svg>