<svg width="28" height="16" viewBox="0 0 28 16" fill="none" xmlns="http://www.w3.org/2000/svg"><path fill="#CDF05F" d="M6.395 9.693h3.04v3.04h-3.04z"/><path fill="#CDF05F" d="M9.434 9.693h3.04v3.04h-3.04zm0 3.04h3.04v3.04h-3.04z"/><path fill="#CDF05F" d="M9.434 6.654h3.04v3.04h-3.04z"/><path fill="#BAF6D4" d="M12.471 6.654h3.04v3.04h-3.04z"/><path fill="#BAF6D4" d="M12.471 9.693h3.04v3.04h-3.04zm-3.037-6.08h3.04v3.04h-3.04z"/><path fill="#BAF6D4" d="M12.471 3.613h3.04v3.04h-3.04z"/><path fill="#68EBA0" d="M12.471.574h3.04v3.04h-3.04z"/><path fill="#68EBA0" d="M9.434.574h3.04v3.04h-3.04zm6.078 3.039h3.04v3.04h-3.04z"/><path fill="#68EBCC" d="M21.594 3.613h3.04v3.04h-3.04z"/><path fill="#68EBCC" d="M24.633.574h3.04v3.04h-3.04z"/><path fill="#68EBA0" d="M15.512 6.654h3.04v3.04h-3.04z"/><path fill="#CDF05F" d="M6.395 6.654h3.04v3.04h-3.04z"/><path fill="#BFF8EA" d="M.314 6.654h3.04v3.04H.314zm6.081-3.041h3.04v3.04h-3.04z"/></svg>