<svg width="28" height="17" viewBox="0 0 28 17" fill="none" xmlns="http://www.w3.org/2000/svg"><path fill="#CDF05F" d="M21.643 10.098h-3.04v3.04h3.04z"/><path fill="#CDF05F" d="M18.604 10.098h-3.04v3.04h3.04z"/><path fill="#CDF05F" d="M18.604 13.138h-3.04v3.04h3.04zm0-6.078h-3.04v3.04h3.04z"/><path fill="#BAF6D4" d="M15.566 7.06h-3.04v3.04h3.04z"/><path fill="#BAF6D4" d="M15.566 10.098h-3.04v3.04h3.04zm3.038-6.079h-3.04v3.04h3.04z"/><path fill="#BAF6D4" d="M15.566 4.019h-3.04v3.04h3.04z"/><path fill="#68EBA0" d="M15.566.98h-3.04v3.04h3.04z"/><path fill="#68EBA0" d="M18.604.98h-3.04v3.04h3.04zm-6.079 3.039h-3.04v3.04h3.04z"/><path fill="#68EBCC" d="M6.443 4.019h-3.04v3.04h3.04z"/><path fill="#68EBCC" d="M3.404.98H.364v3.04h3.04z"/><path fill="#68EBA0" d="M12.525 7.06h-3.04v3.04h3.04z"/><path fill="#CDF05F" d="M21.643 7.06h-3.04v3.04h3.04z"/><path fill="#BFF8EA" d="M27.723 7.06h-3.04v3.04h3.04zm-6.08-3.041h-3.04v3.04h3.04z"/></svg>