<svg width="44" height="32" viewBox="0 0 44 32" fill="none" xmlns="http://www.w3.org/2000/svg"><path fill="#77796E" d="M29.015 13.105H25.9V9.989h3.116z"/><path fill="#AD9687" d="M32.133 16.221h-3.116v-3.116h3.116zm9.348-12.463h-3.116V.642h3.116zM25.9 13.105h-3.115V9.989H25.9zm3.115 3.116H25.9v-3.116h3.116z"/><path fill="#A86D4E" d="M29.015 19.337H25.9V16.22h3.116zm11.427 9.348h-3.116V25.57h3.116zm3.114 3.115H40.44v-3.115h3.116z"/><path fill="#77796E" d="M22.785 13.105H19.67V9.989h3.116z"/><path fill="#77796E" d="M25.9 9.99h-3.115V6.874H25.9zM4.09 13.105H.974V9.989H4.09z"/><path fill="#AD9687" d="M25.9 16.221h-3.115v-3.116H25.9z"/><path fill="#A86D4E" d="M25.9 19.337h-3.115V16.22H25.9z"/><path fill="#77796E" d="M22.785 16.221H19.67v-3.116h3.116zM19.668 9.99h-3.116V6.874h3.116z"/></svg>