<svg width="43" height="31" viewBox="0 0 43 31" fill="none" xmlns="http://www.w3.org/2000/svg"><path fill="#FFF6EB" d="M15.016 18.322h3.04v3.04h-3.04z"/><path fill="#D2BDAB" d="M11.979 15.283h3.04v3.04h-3.04z"/><path fill="#FFF6EB" d="M2.857 27.441h3.04v3.04h-3.04z"/><path fill="#D2BDAB" d="M18.055 18.322h3.04v3.04h-3.04z"/><path fill="#D2BDAB" d="M15.016 15.283h3.04v3.04h-3.04z"/><path fill="#F2C8A4" d="M15.016 12.243h3.04v3.04h-3.04zM3.869 3.124h3.04v3.04h-3.04z"/><path fill="#FFF6EB" d="M.83.084h3.04v3.04H.83zm20.266 18.238h3.04v3.04h-3.04zm18.236 0h3.04v3.04h-3.04z"/><path fill="#D2BDAB" d="M18.055 15.283h3.04v3.04h-3.04z"/><path fill="#F2C8A4" d="M18.055 12.243h3.04v3.04h-3.04zm0-3.04h3.04v3.04h-3.04z"/><path fill="#FFF6EB" d="M21.096 15.283h3.04v3.04h-3.04zm-3.041 6.079h3.04v3.04h-3.04z"/></svg>