<svg width="43" height="32" viewBox="0 0 43 32" fill="none" xmlns="http://www.w3.org/2000/svg"><path fill="#F2FFB5" d="M14.986 18.89h3.04v3.04h-3.04z"/><path fill="#CDEA40" d="M2.824 28.01h3.04v3.04h-3.04zm15.201-9.12h3.04v3.04h-3.04z"/><path fill="#CDEA40" d="M14.986 15.851h3.04v3.04h-3.04zm-3.041 0h3.04v3.04h-3.04z"/><path fill="#FF8617" d="M14.986 12.811h3.04v3.04h-3.04zM3.838 3.692h3.04v3.04h-3.04z"/><path fill="#FF8617" d="M.799.653h3.04v3.04H.799z"/><path fill="#F2FFB5" d="M21.064 18.89h3.04v3.04h-3.04zm0 3.041h3.04v3.04h-3.04z"/><path fill="#FAFAE0" d="M39.301 18.89h3.04v3.04h-3.04z"/><path fill="#CDEA40" d="M18.025 15.851h3.04v3.04h-3.04z"/><path fill="#FF8617" d="M18.025 12.811h3.04v3.04h-3.04z"/><path fill="#FF8617" d="M18.025 9.772h3.04v3.04h-3.04z"/><path fill="#F2FFB5" d="M21.064 15.851h3.04v3.04h-3.04z"/><path fill="#FF8617" d="M21.064 12.811h3.04v3.04h-3.04z"/><path fill="#FF8617" d="M21.064 9.772h3.04v3.04h-3.04z"/><path fill="#FAFAE0" d="M24.105 12.811h3.04v3.04h-3.04zm0 3.04h3.04v3.04h-3.04z"/><path fill="#FAFAE0" d="M24.105 18.89h3.04v3.04h-3.04z"/><path fill="#FAFAE0" d="M27.143 15.851h3.04v3.04h-3.04zm9.119 0h3.04v3.04h-3.04z"/><path fill="#F2FFB5" d="M18.025 21.931h3.04v3.04h-3.04z"/></svg>