<svg width="1282" height="396" viewBox="0 0 1282 396" fill="none" xmlns="http://www.w3.org/2000/svg">
<path d="M1145.76 270.365C1155.77 267.632 1164.33 264.466 1172.33 258.912C1199.64 240.216 1223.98 219.211 1246.8 195.849C1253.78 188.403 1259.78 180.507 1267.19 171.603C1271.2 176.766 1275.67 180.952 1277.78 186.659C1278.82 189.031 1277.55 194.366 1275.24 197.329C1265.54 209.676 1255.38 223.001 1244.21 234.434C1230.22 248.364 1215.24 261.365 1200.27 274.365C1192.3 280.881 1183.34 286.466 1174.86 292.036C1159.29 301.687 1141.89 299.366 1129.41 285.816C1124.93 281.149 1121.38 275.49 1116.35 268.916C1111.67 272.918 1106.54 277.898 1100.88 281.451C1089.59 289.519 1077.81 297.121 1066.01 304.243C1053.74 311.861 1025.48 301.231 1014.36 284.749C1003.25 268.748 1005.14 252.805 1015.24 238.038C1025.83 223.256 1033.97 207.11 1047.49 193.675C1065.22 176.735 1083.97 161.206 1107.24 151.786C1109.62 150.746 1112.47 149.69 1114.86 149.131C1131.98 142.799 1147.87 143.244 1160.49 161.121C1170.19 148.774 1181.91 139.248 1188.7 126.033C1190.05 123.102 1191.41 120.651 1193.26 118.185C1196.96 113.733 1200.76 112.165 1205.73 116.816C1207.23 118.692 1209.22 120.552 1211.2 122.413C1224.08 133.544 1224.92 144.585 1214.78 158.391C1197.74 182.046 1180.21 205.236 1163.65 228.875C1159.5 234.304 1156.35 241.144 1153.18 247.023C1152.28 248.977 1151.91 252.358 1150.48 252.886C1138.56 256.161 1144.08 263.2 1145.76 270.365ZM1084.82 217.004C1071.75 229.461 1060.65 243.298 1053.99 260.359C1087.02 240.033 1127.25 204.554 1153.2 173.871C1130.98 171.226 1099.77 203.042 1084.82 217.004Z" fill="#271815"/>
<path d="M962.104 169.505C902.903 198.865 869.436 250.005 842.888 306.695C828.419 305.723 819.53 298.793 813.37 286.962C810.747 280.31 810.11 275.518 813.768 269.624C822.464 255.866 830.679 242.123 839.856 228.349C851.776 210.154 863.696 191.96 876.097 173.749C877.942 171.283 879.787 168.817 881.632 166.35C890.406 154.996 891.848 154.949 904.196 164.653C908.428 161.628 912.165 158.137 916.894 155.577C929.655 148.424 942.432 141.752 955.224 135.56C961.38 132.472 968.079 131.291 974.329 131.088C989.681 129.626 1009.74 154.479 1004.92 169.074C1001.85 178.318 997.329 187.127 992.307 195.472C979.999 216.567 967.212 237.678 954.92 259.253C952.192 264.154 949.976 270.002 946.396 278.3C977.484 257.556 1047.72 197.518 1076.91 177.799C1081.89 182.93 1086.38 187.597 1090.89 193.225C1087.62 196.219 1085.78 198.685 1082.95 200.702C1057.94 215.954 992.951 274.378 970.438 292.436C965.756 296.438 960.577 299.976 955.864 303.017C949.724 306.586 943.411 304.866 938.944 300.68C931.978 293.688 925.478 286.2 919.94 278.68C914.882 271.144 915.096 262.956 917.218 254.224C923.166 229.968 933.488 207.013 948.711 186.785C953.33 180.86 957.469 174.95 962.104 169.505Z" fill="#271815"/>
<path d="M889.445 209.408C875.753 217.554 871.134 223.48 858.838 230.136C831.874 244.49 773.916 282.471 745.431 294.467C726.916 302.289 698.912 314.27 678.752 315.889C654.297 318.61 644.212 304.501 626.807 287.261C625.317 285.865 623.797 283.509 622.292 281.633C604.793 261.508 608.99 242.603 619.98 225.401C637.372 197.884 661.264 177.856 690.648 163.905C701.083 159.234 712.961 154.516 723.956 152.233C734.935 149.469 746.457 148.613 757.08 149.711C771.069 150.699 783.756 156.061 791.886 169.272C794.447 174.001 798.883 177.225 801.893 180.977C809.945 191.784 807.917 203.4 796.039 208.118C788.921 211.238 783.293 215.752 776.176 218.871C744.342 231.458 711.933 241.176 676.838 242.319C672.03 242.475 667.239 243.112 662.447 243.75C626.916 290.626 696.343 279.703 714.92 273.804C746.367 264.118 815.164 219.046 845.044 205.56C853.603 202.394 863.929 194.358 871.977 190.246C876.257 188.662 879.637 189.034 883.112 192.289C887.115 196.972 883.953 203.331 889.445 209.408ZM771.59 181.483C757.523 178.091 747.056 181.8 736.621 186.471C722.835 191.733 718.958 190.896 707.718 200.406C703.485 203.432 674.336 224.593 670.119 228.1C720.441 221.649 798.997 195.509 771.59 181.483Z" fill="#271815"/>
<path d="M459.37 203.199C442.622 206.151 428.278 209.024 414.399 211.401C402.443 213.715 382.853 203.284 378.166 192.368C375.606 187.639 377.884 183.714 381.668 181.666C387.808 178.097 393.498 175.506 399.67 172.899C425.317 162.438 452.067 156.274 479.872 152.962C490.898 151.641 497.984 147.56 504.433 138.687C529.715 102.251 556.456 66.2485 588.177 35.3778C593.773 29.9017 599.354 23.9449 605.944 19.3991C612.534 14.8532 615.434 15.24 620.445 21.3332C635.493 40.0935 635.493 40.0935 621.666 58.8315C615.666 66.727 609.667 74.6224 604.614 82.0058C597.418 82.7214 591.168 82.9248 585.415 83.5934C585.446 84.5549 585.478 85.5164 585.044 86.9743C588.906 87.3298 592.752 87.2046 598.536 87.4975C593.671 100.65 583.81 108.19 578.369 118.473C572.929 128.757 565.55 138.622 557.288 150.923C569.772 150.035 578.566 154.08 589.08 151.813C598.648 150.057 609.334 153.078 614.982 163.963C617.077 169.189 622.026 173.359 624.121 178.585C626.169 182.368 626.807 187.16 627.909 191.455C620.373 196.513 614.976 193.32 609.578 190.127C603.082 197.557 594.8 194.458 586.611 194.244C569.77 194.311 552.928 194.378 536.567 194.429C530.317 194.633 526.549 197.162 524.318 202.528C502.385 238.374 479.986 274.717 458.549 311.028C449.404 325.763 441.732 341.413 433.099 357.094C430.82 361.019 430.031 366.338 428.28 371.689C426.017 376.094 424.251 380.964 422.469 385.353C404.665 385.452 397.528 373.172 390.903 361.837C388.839 357.573 390.527 350.299 392.293 345.429C401.837 313.355 415.801 284.025 431.191 254.167C438.91 239.96 447.125 226.217 455.325 211.993C456.689 209.543 457.588 207.588 459.37 203.199Z" fill="#271815"/>
<path d="M278.975 35.338C294.297 32.9141 310.548 29.4974 326.366 27.5386C343.129 25.0678 359.412 22.6126 376.238 22.0647C392.103 21.5482 408.511 22.939 424.454 24.8262C437.497 26.3266 442.492 31.939 445.319 44.841C446.468 50.5786 447.617 56.3163 449.232 61.5575C455.349 86.865 419.958 78.8735 411.277 93.1125C406.794 88.4459 402.279 82.8178 398.261 77.6548C370.921 80.47 343.581 83.2852 316.257 86.5812C305.231 87.9027 294.717 90.17 283.707 91.9723C267.905 94.4118 251.606 96.3863 235.804 98.8258C233.416 99.3848 229.586 99.9908 228.671 101.464C224.177 111.236 216.485 111.486 207.335 111.303C210.266 112.651 213.214 114.48 217.634 117.224C210.752 127.554 204.35 137.869 196.553 149.673C203.764 149.438 210.014 149.235 216.264 149.032C235.013 148.421 254.18 145.872 272.976 146.704C285.507 147.258 290.842 148.528 293.731 163.353C296.542 175.774 297.023 175.759 294.916 184.971C292.946 183.592 290.527 183.189 289.518 181.778C285.035 177.112 279.747 177.284 273.978 177.472C241.318 179.498 209.761 185.819 177.676 190.714C174.792 190.807 170.512 192.391 168.667 194.857C155.43 216.945 142.208 239.513 128.072 263.555C144.836 261.084 159.18 258.211 173.587 257.26C203.33 254.367 233.059 250.993 262.865 250.022C293.633 249.02 324.495 250.903 354.829 251.359C357.713 251.265 360.133 251.668 363.033 252.055C376.572 254.02 385.91 259.972 387.837 274.829C388.553 282.024 394.556 289.047 389.999 296.896C374.553 295.474 360.548 294.005 346.048 292.071C337.629 299.564 331.176 293.517 324.785 289.394C317.433 285.302 310.781 287.925 304.641 291.494C296.609 296.087 289.089 301.625 279.333 297.612C263.16 303.432 245.775 301.592 229.492 304.047C195.965 308.989 162.422 313.45 128.895 318.391C119.792 319.65 110.705 321.39 102.114 323.595C98.7645 324.185 94.5317 327.21 93.1834 330.142C88.1612 338.487 80.2546 346.925 90.2139 357.189C91.2067 358.119 91.3006 361.003 90.3705 361.996C83.9687 372.311 81.4912 384.904 70.7001 393.437C51.1571 384.448 39.6303 370.386 40.3525 348.225C35.0643 348.397 30.2568 348.553 25.4494 348.71C17.5696 343.191 13.9226 334.647 11.2214 325.591C9.01669 317.001 10.6892 309.246 18.2403 304.669C30.0399 297.547 41.8551 290.906 54.1824 285.211C60.3382 282.123 65.0517 279.082 68.2135 272.723C79.5591 251.659 91.4011 231.061 103.243 210.462C104.142 208.508 105.041 206.554 106.374 203.141C87.7027 206.156 70.3645 205.758 55.3249 216.835C54.8285 216.37 53.867 216.401 53.355 215.455C41.3944 202.851 43.3912 190.273 59.5331 183.491C71.876 178.277 84.731 174.008 98.0824 170.205C106.642 167.038 115.729 165.299 124.816 163.559C130.538 161.929 135.283 159.85 138.973 154.917C149.048 139.189 159.14 123.941 170.61 106.724C159.072 107.099 148.496 107.444 138.4 107.772C126.366 107.683 114.765 106.135 106.713 95.3287C104.696 92.5069 102.68 89.685 101.609 86.3511C96.8278 72.5502 99.6028 69.0911 114.443 66.6829C145.551 61.3387 176.643 55.5138 207.751 50.1697C213.985 49.4854 216.744 45.5455 220.465 41.5743C228.821 32.1584 236.712 23.2388 245.084 14.3036C247.874 11.3252 251.146 8.33112 254.48 7.26007C256.852 6.22029 261.706 7.50602 263.211 9.38205C268.766 17.3826 273.374 25.8952 278.975 35.338Z" fill="#271815"/>
</svg>
