<svg width="31" height="29" viewBox="0 0 31 29" fill="none" xmlns="http://www.w3.org/2000/svg">
<rect x="21.0625" y="20" width="3" height="3" fill="#34F5AB"/>
<rect x="24.0625" y="20" width="3" height="3" fill="#BDFFE6"/>
<rect x="21.0625" y="17" width="3" height="3" fill="#34F5AB"/>
<rect x="18.0625" y="17" width="3" height="3" fill="#34F5AB"/>
<rect x="15.0625" y="17" width="3" height="3" fill="#34F5AB"/>
<rect x="15.0625" y="3" width="3" height="3" fill="#34F5AB"/>
<rect x="18.0625" y="14" width="3" height="3" fill="#BDFFE6"/>
<rect x="18.0625" width="3" height="3" fill="#BDFFE6"/>
<rect x="18.0625" y="20" width="3" height="3" fill="#ABABFF"/>
<rect x="15.0625" y="20" width="3" height="3" fill="#ABABFF"/>
<rect x="3.0625" y="15" width="3" height="3" fill="#ABABFF"/>
<rect x="0.0625" y="12" width="3" height="3" fill="#ABABFF"/>
<rect x="21.0625" y="23" width="3" height="3" fill="#ABABFF"/>
<rect x="24.0625" y="23" width="3" height="3" fill="#ABABFF"/>
<rect x="27.0625" y="26" width="3" height="3" fill="#D0D0FF"/>
</svg>
