<svg viewBox="0 0 1622 2048" width="1280" height="1280" xmlns="http://www.w3.org/2000/svg"><path d="M678 74h30l17 4 16 6 21 11 14 10 13 11 7 7 13 17 9 16 7 16 4 15 1 7v9l-3 19-8 26-9 21-8 17-5 13-2 8v10l3 9 9 10 10 6 16 7 16 5-10-38-2-15v-16l3-20 6-22 8-16 10-14 9-10 10-9 15-10 13-6h6l1 5-8 13-7 14-4 16v11l3 14 9 27 7 12 10 14 11 14 9 10 11 14 7 8 6 9 5 1 3-6 5 2 18 13 16 9 23 14 12 9 6 4 7 8 5 5 3 1v-12l3-13 5-7 3 3 6 16 10 25 5 15 3 17v28l-3 18-4 14-9 19-10 15-4 7 11-3 30-12 20-10 9-7 6-8 5-11 2-16-1-14-4-13-4-10 1-2 9 12 12 25 4 15 1 9v10l-3 16-7 24-8 18-8 15-1 3v7l3 6 2 6v22l-3 32-5 21-7 19-15 29 17-3 23-6 15-8 7-5 6-1-1 6-6 9-8 11-10 14-9 10-7 7-10 8-13 10-26 16 26-2 16-2h20l-1 6-7 20-7 19-11 21-14 23-14 19-8 10-9 10-22 22-15 10-13 6-18 6-24 6-30 5-10 2-7 4-8 11-21 21-10 8-9 8-13 10-17 11-16 9-16 8-21 10-10 4h38l24 4 15 4 12 5 5 2 3-9 8-16 8-17 3-10 4-7 5 5 4 10 3 15 1 10v21l-3 14-3 9 17-7 18-8 28-9 26-6 41-5 32-3 83-4 40-4 48-7 33-6 32-8 27-9 26-11 25-12 31-16 22-12 30-18 18-13 10-9 8-7 10-9 32-30 7-7 13-10 5-1 2 2-1 10-6 26-9 27-12 26-9 16-7 11-12 17-9 10-11 9h-2l-2 4-3 4 5-4 6 1 5 4-1 6-13 24-10 14-12 14-5 6-8 7-7 7-14 11-15 9-19 9-19 5-20 4 15 10 10 9 8 11 5 12 1 7-9 3-30 3-19 1h-29l-32-3-16-4h-4l10 8 11 11 9 11 12 15 7 11 1 6-6 4-9 2-27 2h-10l14 19 4 9v5l-6 3-36 6-8 4-9 3-30 5h-5v-2l-7 3h-8l-2-2h-7l-2-1v-2l-14 3-4 5-10 3h-13l-8-1-9 3-7 6-16 2-11 1h-23l-22-3-19-5-19-10h-8l-5 1-28-6-20-6 3 5v19l-6 18-8 19-8 12-14 19-12 17-14 19-11 12-18 13-6 4h-2l5 9 6 12 12 36 11 35 15 53 6 17 1 7-5 6 2 4 6 9 12 12 13 10 18 10 19 7 14 4 21 3h28l21-5 17-7 14-8 10-7 3-3h2l2-5 3-9 2-18-5-30v-17l4-16 10-19 12-14 27-27 11-14 14-20 7-14 3-11v-19l-2-10-8-18-7-10-12-6h-8l5-5 9-1 10 4 10 8 8 11 7 14 4 12 2 12v30l-6 31-6 22-2 10v14l4 16 10 30 4 16 1 8-3 12-8 17-9 11-8 6-19 10-24 8-7 1-13-4h-9l-22 14-16 9-20 9-20 6-19 3h-31l-19-3-20-6-14-6 2 5 8 16 11 20 17 26 9 16 1 4v7l-4 8-9 12-12 12-2 6 11 12 10 9 10 8 1 4-4 2-35 3 1 7 9 31 13 37 7 13 12 12 7 6 6 10 4 9-5-1-2-3h-9l-4 2-1 2h-87l-2-3v-3l-4 1 4 5h-7l-5-5-8-9-4-13-6-20-9-26-9-21-5-7-9 3-11 5-5 1h-8v-11l3-12-2-8-9-3-20-9-22-11-11-7-13-11-3-10v-22l2-35v-19l-1-7-6 1-5 15-9 20-4 16-3 7-4-1-2-3-1-8-2-47-1-80-1-3h-2l-4 8-4 11-7 14-2 13-1 12v41l3 19 7 34v9l-7 10-11 11-13 10-15 9-7 4 2 5 9 13 3 8-5 3-31 5-5 3-9 15-8 16-11 26-2 9v16l-1 3-4 2-14 1-84 3-30 3-9 2v2h-9l1-7 7-11 25-25 8-11 8-16 14-35 4-8-6 1h-11l-3-3 1-5 5-5 8-6 3-2-4-6-21-14-10-9-8-9-8-14-3-7 1-11 6-17 14-33 15-40 13-42 12-36 1-2-9 1h-10l-1-5 5-16 6-26 14-53 10-42 7-30 4-14-7 1h-12l-12-3-5-4-6-10-6-16-5-19-2-13v-25l3-31 3-23 4-16 1-6-19 9-16 5-10 2-21 1-13-1-11-3-13-7-3-3-9 2-2 1-4-2h-8l-8-7-6-6-5 1-5 4-6 1h-6l-9-2h-12l-6-3-8-1-10-7-28-6-8-4-1-7 4-6 8-9 4-7v-2l-25-1-10-2-5-3-2-2 1-5 11-18 7-9 13-15 9-10-9 1-23 3h-39l-27-2-12-5-3-4 1-10 6-9 12-14 10-6v-2l-11-4-13-4-12-6-13-9-11-9-16-16-10-13-10-15-9-17-6-17-2-7 2-2 5 1-1-4-6-8-8-10-9-15-10-19-8-19-11-33-4-18-2-22 1-3 6 1 7 7 9 11 9 10 8 10 7 7 7 8 19 19 11 9 10 8 30 20 23 15 13 8 21 12 23 11 28 10 34 9 37 7 32 5 42 4 26 2 45 6 24 5 20 6 19 8 10 5 18 10v-8l-2-12v-18l-3-6-14-8-14-11-12-12-10-15-10-18-8-18-8-11-9-10-10-11-13-19-9-15-13-23-10-18-2-8 1-1h8l6 2h4l-1-4-14-15-9-10-12-19-8-16-7-16-4-15 1-12 4 2 10 9 11 9 10 8h2l-7-14-14-19-8-14-8-17-9-27-8-32-7-27v-6l4-1 16 8 17 10 7 4 2-25v-10l-4-32v-46l2-22 5-35 5-20 8-22 12-23 9-14 11-15 8-10 9-11 14-15 7-7 6-5h2v-2h2l2-4 7-7 9-13 6-16 3-11 1-18-1-11-6-15-7-14-12-17-11-13-5-5-9-12v-3h8l12 3 16 8 12 7 14 10 16 15 9 11 7 11 8 16 6 16 4 20 2 14v32l-5 25-8 23-8 17-12 19-10 19-9 23-5 14 5-5 13-19 10-14 9-11 11-14 8-10 9-14 6-14 2-9v-22l-3-27v-26l4-22 6-16 11-16 12-14 14-15 8-7 10-8 16-13 20-15 8-7 8-8 6-11 5-14 1-5v-13l-4-13-6-9v-2l-12-6h-12l-8 5-5 6-2 6 1 11 6 10 11 10 1 4-8 1-10-2-14-6-9-7-6-9-3-11v-10l5-12 6-7 7-5 16-5zm-98 1020l1 5 6 12 6 24 2 12 3 7 8-6 14-15 9-8 10-7 12-5 6-2-2-4-32-3-23-5-11-4zm410 951v1h5v-1z" fill="#FDFAF7"/><path d="M1006 2046l4 2h-7zm-111 0h4v2h-4zm-432 1h6v1h-6zm11 0l2 1z" fill="#FDFAF7"/></svg>